<?xml version="1.0" encoding="UTF-8"?>
<svg xmlns="http://www.w3.org/2000/svg" xmlns:xlink="http://www.w3.org/1999/xlink" width="24pt" height="24pt" viewBox="0 0 24 24" version="1.1">
<g id="surface1">
<path style=" stroke:none;fill-rule:nonzero;fill:rgb(0%,0%,0%);fill-opacity:1;" d="M 19.128906 1.585938 C 18.574219 2.125 18.121094 2.652344 18.121094 2.746094 C 18.121094 3 21 5.878906 21.253906 5.878906 C 21.347656 5.878906 21.875 5.425781 22.414062 4.871094 C 23.785156 3.46875 23.761719 3.253906 22.03125 1.585938 C 21.132812 0.71875 20.953125 0.601562 20.566406 0.601562 C 20.183594 0.601562 20.015625 0.71875 19.128906 1.585938 Z M 19.128906 1.585938 "/>
<path style=" stroke:none;fill-rule:nonzero;fill:rgb(0%,0%,0%);fill-opacity:1;" d="M 1.210938 2.328125 C 0.589844 2.675781 0.613281 2.351562 0.601562 12.875 L 0.601562 22.703125 L 1.296875 23.398438 L 11.101562 23.398438 C 21.792969 23.398438 21.40625 23.425781 21.707031 22.714844 C 21.804688 22.464844 21.839844 20.785156 21.816406 16.511719 L 21.78125 10.65625 L 21.445312 10.367188 C 21.085938 10.054688 20.449219 9.984375 20.027344 10.199219 C 19.464844 10.511719 19.441406 10.703125 19.441406 16.019531 L 19.441406 21 L 3 21 L 3 4.558594 L 7.980469 4.558594 C 13.296875 4.558594 13.488281 4.535156 13.800781 3.972656 C 14.015625 3.550781 13.945312 2.914062 13.632812 2.554688 L 13.34375 2.21875 L 7.414062 2.195312 C 2.652344 2.171875 1.441406 2.195312 1.210938 2.328125 Z M 1.210938 2.328125 "/>
<path style=" stroke:none;fill-rule:nonzero;fill:rgb(0%,0%,0%);fill-opacity:1;" d="M 12.757812 7.945312 C 10.296875 10.402344 8.28125 12.503906 8.28125 12.601562 C 8.28125 12.804688 11.148438 15.71875 11.339844 15.71875 C 11.542969 15.71875 20.398438 6.792969 20.398438 6.589844 C 20.398438 6.394531 17.519531 3.480469 17.328125 3.480469 C 17.28125 3.480469 15.214844 5.496094 12.757812 7.945312 Z M 12.757812 7.945312 "/>
<path style=" stroke:none;fill-rule:nonzero;fill:rgb(0%,0%,0%);fill-opacity:1;" d="M 7.464844 13.597656 C 7.390625 13.679688 7.019531 14.628906 6.648438 15.707031 C 5.746094 18.300781 5.6875 18.238281 8.292969 17.339844 C 9.371094 16.96875 10.34375 16.585938 10.441406 16.488281 C 10.597656 16.34375 10.441406 16.140625 9.179688 14.878906 C 8.386719 14.089844 7.703125 13.441406 7.667969 13.441406 C 7.621094 13.441406 7.535156 13.511719 7.464844 13.597656 Z M 7.464844 13.597656 "/>
</g>
</svg>
