<?xml version="1.0" standalone="no"?>
<!DOCTYPE svg PUBLIC "-//W3C//DTD SVG 20010904//EN"
 "http://www.w3.org/TR/2001/REC-SVG-20010904/DTD/svg10.dtd">
<svg version="1.0" xmlns="http://www.w3.org/2000/svg"
 width="24.000000pt" height="24.000000pt" viewBox="0 0 24.000000 24.000000"
 preserveAspectRatio="xMidYMid meet">

<g transform="translate(0.000000,24.000000) scale(0.100000,-0.100000)"
fill="#000000" stroke="none">
<path d="M75 205 c-3 -8 -7 -21 -9 -28 -2 -7 2 -24 10 -38 18 -33 18 -35 -16
-49 -21 -9 -30 -19 -30 -35 0 -21 5 -24 58 -27 l57 -3 0 32 c0 18 -5 37 -12
44 -8 8 -7 18 5 38 10 17 13 37 8 54 -5 22 -12 27 -37 27 -18 0 -32 -6 -34
-15z"/>
<path d="M165 74 c-18 -18 -16 -33 7 -47 35 -22 66 21 36 51 -16 16 -23 15
-43 -4z m45 -15 c0 -13 -20 -21 -38 -14 -12 5 -13 8 -4 14 16 10 42 10 42 0z"/>
</g>
</svg>
